<svg id="Layer_1" data-name="Layer 1" xmlns="http://www.w3.org/2000/svg" viewBox="0 0 289.54 63.54"><defs><style>.cls-1{fill:#fff;}.cls-2{font-size:30px;font-family:FranklinGothic-Demi, Franklin Gothic Demi;font-weight:300;letter-spacing:0.3em;}.cls-3{letter-spacing:0.28em;}</style></defs><path class="cls-1" d="M41.21,71.54H19V17.33l.06.24a1.09,1.09,0,0,0,1.06.94c.29,0,.59,0,.88,0l13.47.05h.4v5.64c-.41-.1-.78-.22-1.16-.28a1.27,1.27,0,0,0-.62,2.45c2.33.8,4.64,1.61,7,2.39,3,1,6,2,9.06,3A1.2,1.2,0,0,0,50.61,31a1.05,1.05,0,0,0-.49-1.46A7.62,7.62,0,0,0,48.88,29c-2.69-.92-5.39-1.82-8.08-2.73-.12,0-.3-.07-.34-.16-.19-.37-.45-.76-.22-1.18a4.22,4.22,0,0,1,.68-.88.47.47,0,0,1,.42-.08c.47.13.92.31,1.38.45l6.47,2.07a1,1,0,0,0,1.22-.43,1.29,1.29,0,0,0-.48-2,14.51,14.51,0,0,0-1.48-.55.44.44,0,0,1-.37-.49c0-1.39,0-2.77,0-4.15,0-.08,0-.16,0-.26h.31c3.26,0,6.52,0,9.78,0,1.57,0,3.13,0,4.69-.09a1.11,1.11,0,0,0,1-1.17,1.17,1.17,0,0,0-1-1.26A12.79,12.79,0,0,0,61.41,16c-.31,0-.53,0-.61-.39a1.26,1.26,0,0,0-.25-.41,11.91,11.91,0,0,0-2.34-2.31A21.49,21.49,0,0,0,53,10.14,33.14,33.14,0,0,0,44.5,8.2l-1.58-.13c0,.15,0,.25,0,.36l-.12,3.85a.6.6,0,0,1-.07.33,1.43,1.43,0,0,1-2.25.2.74.74,0,0,1-.29-.63c0-1.27,0-2.55-.06-3.82,0-.1,0-.19,0-.31-.75.07-1.47.12-2.19.2a31.27,31.27,0,0,0-8.65,2.2,17.18,17.18,0,0,0-5.31,3.14A6.75,6.75,0,0,0,22,15.89c0,.06-.17.1-.27.11l-1.48,0a1.17,1.17,0,0,0-1.14.76,4,4,0,0,0-.13.46V8H64V71.54H41.73a1.55,1.55,0,0,0,1-1.13l.1-.27c.93-2.79,1.87-5.58,2.79-8.37.17-.51.31-1,.44-1.46-1.42-.63-2.79-1.25-4.17-1.85-.93-.41-1.85-.82-2.8-1.19-1.32-.52-2.65-1-4-1.5a1.06,1.06,0,0,0-.53-.05,1.58,1.58,0,0,0-1,1.08A1.09,1.09,0,0,0,34.2,58c.53.26,1,.54,1.6.76,2,.77,4,1.5,6,2.27a2.13,2.13,0,0,1,.78.55,1.28,1.28,0,0,1-1.36,1.93c-1-.37-2-.76-3-1.14l-.73-.25c0,.18.08.3.12.42.83,2.54,1.69,5.07,2.48,7.62A1.83,1.83,0,0,0,41.21,71.54ZM50.7,41.12a1.24,1.24,0,0,0-.83-1.18c-1.65-.58-3.31-1.17-5-1.72C41.25,37,37.59,35.81,34,34.6a1.24,1.24,0,0,0-1,2.25,2.64,2.64,0,0,0,.38.18c2,.72,4.07,1.47,6.12,2.15,3.22,1.07,6.46,2.09,9.68,3.15A1.24,1.24,0,0,0,50.7,41.12Zm-1.17-4a3.12,3.12,0,0,0,.62-.26,1.1,1.1,0,0,0,.56-1.09,1.25,1.25,0,0,0-.8-1.15c-2.26-.77-4.5-1.55-6.76-2.29-3.09-1-6.2-2-9.29-3a1.46,1.46,0,0,0-.51-.07,1.38,1.38,0,0,0-1.13,1.06,1.36,1.36,0,0,0,.93,1.42L47.9,36.66C48.43,36.83,49,37,49.53,37.12Zm1.2,14.65a1.35,1.35,0,0,0-.91-1.31c-2.24-.77-4.47-1.54-6.71-2.27-3.08-1-6.17-2-9.26-3a1.14,1.14,0,0,0-.48-.06,1.36,1.36,0,0,0-1.15,1.06,1.35,1.35,0,0,0,.92,1.4q6.4,2.16,12.84,4.3c1.09.36,2.2.69,3.31,1A1.28,1.28,0,0,0,50.73,51.77ZM32.24,41.12a1.25,1.25,0,0,0,.84,1.17c2.15.74,4.29,1.49,6.45,2.21,3.18,1.07,6.37,2.11,9.57,3.15a1.26,1.26,0,0,0,.47.08,1.41,1.41,0,0,0,1.14-1.24,1.1,1.1,0,0,0-.8-1.18c-2.65-.94-5.3-1.89-8-2.79s-5.41-1.74-8.11-2.63A1.25,1.25,0,0,0,32.24,41.12ZM48.57,58.31a2.39,2.39,0,0,0,.52-.22A1.28,1.28,0,0,0,49,55.82a5,5,0,0,0-.91-.42c-1.88-.67-3.75-1.36-5.63-2-2.84-1-5.69-1.94-8.52-2.93a1.13,1.13,0,0,0-1.15.2,1.17,1.17,0,0,0,.13,2,7.5,7.5,0,0,0,1.12.5q6.93,2.47,13.86,4.91C48.08,58.19,48.31,58.24,48.57,58.31Z" transform="translate(-19 -8)"/><text class="cls-2" transform="translate(44.29 45.66)">OOLSQ<tspan class="cls-3" x="135.18" y="0">U</tspan><tspan x="163.2" y="0">ARE</tspan></text><path d="M54.3,38c-.42-.12-.83-.22-1.23-.35L42,34a.94.94,0,0,1,.15-1.84.82.82,0,0,1,.38.05c2.32.73,4.64,1.46,7,2.22,1.69.55,3.37,1.14,5.06,1.71a.93.93,0,0,1,.6.86.82.82,0,0,1-.42.81A2.07,2.07,0,0,1,54.3,38Z" transform="translate(-19 -8)"/><path d="M31.46,23.15a3.57,3.57,0,0,1,.1-.35.89.89,0,0,1,.85-.57l1.11,0c.07,0,.18,0,.2-.08a5.07,5.07,0,0,1,1.43-1.72,12.87,12.87,0,0,1,4-2.35,23.4,23.4,0,0,1,6.47-1.64l1.64-.16a1.54,1.54,0,0,0,0,.24c0,1,0,1.9,0,2.85a.56.56,0,0,0,.22.48,1.06,1.06,0,0,0,1.67-.15.41.41,0,0,0,.06-.25l.09-2.88c0-.08,0-.16,0-.27l1.18.1a24.56,24.56,0,0,1,6.33,1.45,16,16,0,0,1,3.92,2.06,9,9,0,0,1,1.76,1.73.9.9,0,0,1,.18.31c.06.27.23.29.46.29a10.87,10.87,0,0,1,1.14.05.89.89,0,0,1,.73.94.84.84,0,0,1-.79.88c-1.17,0-2.34.06-3.51.07H53.2c0,.07,0,.13,0,.19,0,1,0,2.07,0,3.1a.33.33,0,0,0,.28.37,10.51,10.51,0,0,1,1.11.41A1,1,0,0,1,55,29.72.8.8,0,0,1,54,30L49.2,28.5c-.34-.11-.68-.24-1-.34a.37.37,0,0,0-.31.05,3.24,3.24,0,0,0-.51.66c-.18.32,0,.61.16.89,0,.06.17.09.26.12,2,.68,4,1.35,6,2a5.43,5.43,0,0,1,.93.4.78.78,0,0,1,.36,1.09A.89.89,0,0,1,54,34c-2.26-.74-4.52-1.47-6.77-2.23C45.47,31.2,43.74,30.6,42,30a1,1,0,0,1,.46-1.84c.29.05.56.14.87.21V24.16H43L33,24.11q-.33,0-.66,0a.81.81,0,0,1-.79-.7c0-.06,0-.12-.05-.18Z" transform="translate(-19 -8)"/><path d="M48.07,63.75a1.36,1.36,0,0,1-.86-1c-.6-1.91-1.24-3.81-1.86-5.71,0-.08-.05-.18-.09-.31l.55.19c.75.29,1.5.58,2.26.85a1,1,0,0,0,1-1.44,1.66,1.66,0,0,0-.58-.41c-1.49-.58-3-1.13-4.47-1.7a13.17,13.17,0,0,1-1.2-.57.82.82,0,0,1-.49-.91,1.2,1.2,0,0,1,.77-.81.87.87,0,0,1,.39,0c1,.37,2,.73,3,1.12.7.28,1.4.58,2.09.89l3.12,1.38c-.1.33-.2.72-.33,1.1-.69,2.08-1.39,4.17-2.09,6.25,0,.07-.05.14-.07.21a1.19,1.19,0,0,1-.75.85Z" transform="translate(-19 -8)"/><path d="M55.17,41a.93.93,0,0,1-1.21.9c-2.41-.79-4.83-1.55-7.23-2.35-1.54-.51-3.06-1.07-4.58-1.61a1.85,1.85,0,0,1-.29-.13.93.93,0,0,1,.78-1.68c2.73.9,5.46,1.79,8.19,2.7,1.25.41,2.48.85,3.72,1.29A.92.92,0,0,1,55.17,41Z" transform="translate(-19 -8)"/><path d="M55.19,49a1,1,0,0,1-1.08.86c-.83-.23-1.66-.47-2.47-.74L42,45.86a1,1,0,0,1-.68-1,1,1,0,0,1,.86-.8.83.83,0,0,1,.35,0c2.32.73,4.63,1.46,6.94,2.21,1.67.54,3.34,1.12,5,1.7A1,1,0,0,1,55.19,49Z" transform="translate(-19 -8)"/><path d="M41.37,41a.93.93,0,0,1,1.19-.92c2,.67,4,1.29,6.07,2s4,1.38,5.95,2.08a.82.82,0,0,1,.6.88,1,1,0,0,1-.86.93.86.86,0,0,1-.35-.06c-2.39-.78-4.77-1.55-7.16-2.35C45.2,43,43.6,42.42,42,41.86A.9.9,0,0,1,41.37,41Z" transform="translate(-19 -8)"/><path d="M53.58,53.85c-.19-.06-.37-.09-.53-.15L42.68,50a6.35,6.35,0,0,1-.84-.38.87.87,0,0,1-.09-1.52A.82.82,0,0,1,42.6,48c2.12.73,4.26,1.45,6.38,2.19,1.41.48,2.81,1,4.21,1.5a4.17,4.17,0,0,1,.68.31,1,1,0,0,1,.1,1.71A2.14,2.14,0,0,1,53.58,53.85Z" transform="translate(-19 -8)"/></svg>